<svg xmlns="http://www.w3.org/2000/svg" width="1180" height="1078" viewBox="0 0 1180 1078" font-family="Helvetica, Arial, sans-serif"><rect x="0" y="0" width="1180" height="1078" fill="#ffffff"></rect><rect x="0.5" y="0.5" width="1179" height="1077" fill="none" stroke="#c9ced4" stroke-width="1"></rect><text x="62.33333333333334" y="58" font-size="13" font-weight="600" fill="#1b1f24"><tspan fill="#6b747e">(A)</tspan><tspan dx="7">AAToE</tspan></text><text x="62.33333333333334" y="78" font-size="9.5" font-weight="600" letter-spacing=".13em" fill="#6b747e">DECOMPOSED DOMAIN</text><g transform="translate(62.33,84)"><defs><clipPath id="dc0"><rect x="30" y="14" width="256" height="256" rx="3"></rect></clipPath><radialGradient id="g0_0" gradientUnits="userSpaceOnUse" cx="94" cy="78" r="128"><stop offset="0%" stop-color="#4477AA" stop-opacity="0.72"></stop><stop offset="52%" stop-color="#4477AA" stop-opacity="0.36"></stop><stop offset="100%" stop-color="#4477AA" stop-opacity="0"></stop></radialGradient><radialGradient id="g0_1" gradientUnits="userSpaceOnUse" cx="222" cy="78" r="128"><stop offset="0%" stop-color="#228833" stop-opacity="0.72"></stop><stop offset="52%" stop-color="#228833" stop-opacity="0.36"></stop><stop offset="100%" stop-color="#228833" stop-opacity="0"></stop></radialGradient><radialGradient id="g0_2" gradientUnits="userSpaceOnUse" cx="94" cy="206" r="128"><stop offset="0%" stop-color="#8E44AD" stop-opacity="0.72"></stop><stop offset="52%" stop-color="#8E44AD" stop-opacity="0.36"></stop><stop offset="100%" stop-color="#8E44AD" stop-opacity="0"></stop></radialGradient><radialGradient id="g0_3" gradientUnits="userSpaceOnUse" cx="222" cy="206" r="128"><stop offset="0%" stop-color="#CC3311" stop-opacity="0.72"></stop><stop offset="52%" stop-color="#CC3311" stop-opacity="0.36"></stop><stop offset="100%" stop-color="#CC3311" stop-opacity="0"></stop></radialGradient></defs><g clip-path="url(#dc0)"><rect x="30" y="14" width="256" height="256" fill="#fff"></rect><rect x="30" y="14" width="256" height="256" fill="url(#g0_0)"></rect><rect x="30" y="14" width="256" height="256" fill="url(#g0_1)"></rect><rect x="30" y="14" width="256" height="256" fill="url(#g0_2)"></rect><rect x="30" y="14" width="256" height="256" fill="url(#g0_3)"></rect><rect x="35" y="19" width="246" height="246" rx="3" fill="none" stroke="#1b1f24" stroke-width="1.1" stroke-opacity="0.7" stroke-dasharray="9 5"></rect><circle cx="94" cy="142" r="112" fill="none" stroke="#7E74A8" stroke-width="1.1" stroke-opacity="0.5" stroke-dasharray="9 5"></circle><circle cx="222" cy="142" r="112" fill="none" stroke="#7E74A8" stroke-width="1.1" stroke-opacity="0.5" stroke-dasharray="9 5"></circle><circle cx="94" cy="78" r="90" fill="none" stroke="#4477AA" stroke-width="1.1" stroke-opacity="0.6" stroke-dasharray="3.5 3.5"></circle><circle cx="222" cy="78" r="90" fill="none" stroke="#228833" stroke-width="1.1" stroke-opacity="0.6" stroke-dasharray="3.5 3.5"></circle><circle cx="94" cy="206" r="90" fill="none" stroke="#8E44AD" stroke-width="1.1" stroke-opacity="0.6" stroke-dasharray="3.5 3.5"></circle><circle cx="222" cy="206" r="90" fill="none" stroke="#CC3311" stroke-width="1.1" stroke-opacity="0.6" stroke-dasharray="3.5 3.5"></circle><line x1="158" y1="14" x2="158" y2="270" stroke="#6b747e" stroke-width="1" stroke-dasharray="4 4" opacity="0.55"></line><line x1="30" y1="142" x2="286" y2="142" stroke="#6b747e" stroke-width="1" stroke-dasharray="4 4" opacity="0.55"></line><text x="94" y="82" text-anchor="middle" font-size="13" font-weight="700" fill="#4477AA" opacity="0.95">1</text><text x="222" y="82" text-anchor="middle" font-size="13" font-weight="700" fill="#228833" opacity="0.95">2</text><text x="94" y="210" text-anchor="middle" font-size="13" font-weight="700" fill="#8E44AD" opacity="0.95">3</text><text x="222" y="210" text-anchor="middle" font-size="13" font-weight="700" fill="#CC3311" opacity="0.95">4</text><text x="44" y="146" text-anchor="middle" font-size="11" font-weight="700" fill="#1b1f24">L</text><text x="272" y="146" text-anchor="middle" font-size="11" font-weight="700" fill="#1b1f24">R</text><text x="43" y="29" font-size="9" font-weight="700" letter-spacing=".04em" fill="#1b1f24">root</text><line x1="133" y1="96" x2="147" y2="96" stroke="#1b1f24" stroke-width="1.5"></line><line x1="140" y1="89" x2="140" y2="103" stroke="#1b1f24" stroke-width="1.5"></line><circle cx="140" cy="96" r="3.1" fill="#1b1f24"></circle><text x="150" y="90" font-size="12" font-style="italic" fill="#1b1f24">(x, t)</text></g><rect x="30.5" y="14.5" width="255" height="255" rx="3" fill="none" stroke="#c9ced4" stroke-width="1"></rect><line x1="30" y1="271" x2="300" y2="271" stroke="#414a54" stroke-width="1.1"></line><path d="M300,271 L294.57,273.55 L294.57,268.45 Z" fill="#414a54" fill-opacity="1"></path><line x1="29" y1="270" x2="29" y2="1" stroke="#414a54" stroke-width="1.1"></line><path d="M29,1 L31.55,6.43 L26.45,6.43 Z" fill="#414a54" fill-opacity="1"></path><text x="295" y="286" font-size="12" font-style="italic" fill="#414a54">x</text><text x="21" y="9" font-size="12" font-style="italic" fill="#414a54">t</text><text x="21" y="285" font-size="9" fill="#6b747e">0</text></g><g transform="translate(89.33,398)"><text x="0" y="8" font-size="9" fill="#6b747e">soft indicators Ψ̃<tspan font-size="7" dy="2">i</tspan><tspan dy="-2">(x, t)</tspan></text><text x="252" y="8" text-anchor="end" font-size="9" fill="#6b747e">Σ = 1.00</text><text x="0" y="20" font-size="8.5" font-style="italic" fill="#6b747e">normalised over all nodes</text><rect x="0" y="27" width="9" height="9" rx="2" fill="#5a6169"></rect><text x="20" y="37" text-anchor="middle" font-size="9.5" font-weight="600" fill="#414a54">root</text><rect x="34" y="31" width="184" height="6" rx="3" fill="#e3e7eb"></rect><rect x="34" y="31" width="18.4" height="6" rx="3" fill="#5a6169"></rect><text x="252" y="37" text-anchor="end" font-size="10" fill="#414a54">0.10</text><rect x="0" y="41" width="9" height="9" rx="2" fill="#7E74A8"></rect><text x="20" y="51" text-anchor="middle" font-size="9.5" font-weight="600" fill="#414a54">L</text><rect x="34" y="45" width="184" height="6" rx="3" fill="#e3e7eb"></rect><rect x="34" y="45" width="36.8" height="6" rx="3" fill="#7E74A8"></rect><text x="252" y="51" text-anchor="end" font-size="10" fill="#414a54">0.20</text><rect x="0" y="55" width="9" height="9" rx="2" fill="#7E74A8"></rect><text x="20" y="65" text-anchor="middle" font-size="9.5" font-weight="600" fill="#414a54">R</text><rect x="34" y="59" width="184" height="6" rx="3" fill="#e3e7eb"></rect><rect x="34" y="59" width="33.12" height="6" rx="3" fill="#7E74A8"></rect><text x="252" y="65" text-anchor="end" font-size="10" fill="#414a54">0.18</text><rect x="0" y="69" width="9" height="9" rx="2" fill="#4477AA"></rect><text x="20" y="79" text-anchor="middle" font-size="9.5" font-weight="600" fill="#414a54">1</text><rect x="34" y="73" width="184" height="6" rx="3" fill="#e3e7eb"></rect><rect x="34" y="73" width="44.16" height="6" rx="3" fill="#4477AA"></rect><text x="252" y="79" text-anchor="end" font-size="10" fill="#414a54">0.24</text><rect x="0" y="83" width="9" height="9" rx="2" fill="#228833"></rect><text x="20" y="93" text-anchor="middle" font-size="9.5" font-weight="600" fill="#414a54">2</text><rect x="34" y="87" width="184" height="6" rx="3" fill="#e3e7eb"></rect><rect x="34" y="87" width="33.12" height="6" rx="3" fill="#228833"></rect><text x="252" y="93" text-anchor="end" font-size="10" fill="#414a54">0.18</text><rect x="0" y="97" width="9" height="9" rx="2" fill="#8E44AD"></rect><text x="20" y="107" text-anchor="middle" font-size="9.5" font-weight="600" fill="#414a54">3</text><rect x="34" y="101" width="184" height="6" rx="3" fill="#e3e7eb"></rect><rect x="34" y="101" width="11.04" height="6" rx="3" fill="#8E44AD"></rect><text x="252" y="107" text-anchor="end" font-size="10" fill="#414a54">0.06</text><rect x="0" y="111" width="9" height="9" rx="2" fill="#CC3311"></rect><text x="20" y="121" text-anchor="middle" font-size="9.5" font-weight="600" fill="#414a54">4</text><rect x="34" y="115" width="184" height="6" rx="3" fill="#e3e7eb"></rect><rect x="34" y="115" width="7.36" height="6" rx="3" fill="#CC3311"></rect><text x="252" y="121" text-anchor="end" font-size="10" fill="#414a54">0.04</text></g><g transform="translate(65.33,524)"><text x="150" y="14" text-anchor="middle" font-size="12.5" font-style="italic" fill="#1b1f24">(x, t)</text><line x1="150" y1="19" x2="150" y2="38" stroke="#1b1f24" stroke-width="1.4"></line><path d="M150,40 L147.45,34.57 L152.55,34.57 Z" fill="#1b1f24" fill-opacity="1"></path><g transform="translate(0,28)"><line x1="150" y1="30" x2="86" y2="108" stroke="#aeb4ba" stroke-width="1.3"></line><line x1="150" y1="30" x2="214" y2="108" stroke="#aeb4ba" stroke-width="1.3"></line><line x1="86" y1="108" x2="46" y2="190" stroke="#aeb4ba" stroke-width="1.3"></line><line x1="86" y1="108" x2="120" y2="190" stroke="#aeb4ba" stroke-width="1.3"></line><line x1="214" y1="108" x2="180" y2="190" stroke="#aeb4ba" stroke-width="1.3"></line><line x1="214" y1="108" x2="254" y2="190" stroke="#aeb4ba" stroke-width="1.3"></line><path d="M150,45 C150,79 150,257 150,283" fill="none" stroke="#7E74A8" stroke-width="2" stroke-opacity="0.52" stroke-linecap="round"></path><path d="M150,283 L147.91,278.57 L152.09,278.57 Z" fill="#7E74A8" fill-opacity="0.67"></path><path d="M86,123 C44,157 120,257 150,283" fill="none" stroke="#7E74A8" stroke-width="2.9" stroke-opacity="0.69" stroke-linecap="round"></path><path d="M150,283 L144.99,281.59 L147.89,278.25 Z" fill="#7E74A8" fill-opacity="0.84"></path><path d="M214,123 C256,157 180,257 150,283" fill="none" stroke="#7E74A8" stroke-width="2.72" stroke-opacity="0.66" stroke-linecap="round"></path><path d="M150,283 L152.08,278.3 L154.95,281.61 Z" fill="#7E74A8" fill-opacity="0.8059999999999999"></path><path d="M46,207 C46,245 150,245 150,283" fill="none" stroke="#4477AA" stroke-width="3.26" stroke-opacity="0.76" stroke-linecap="round"></path><path d="M150,283 L147.73,278.19 L152.27,278.19 Z" fill="#4477AA" fill-opacity="0.908"></path><path d="M180,207 C180,245 150,245 150,283" fill="none" stroke="#228833" stroke-width="2.72" stroke-opacity="0.66" stroke-linecap="round"></path><path d="M150,283 L147.81,278.35 L152.19,278.35 Z" fill="#228833" fill-opacity="0.8059999999999999"></path><path d="M120,207 C120,245 150,245 150,283" fill="none" stroke="#8E44AD" stroke-width="1.64" stroke-opacity="0.45" stroke-linecap="round"></path><path d="M150,283 L147.96,278.67 L152.04,278.67 Z" fill="#8E44AD" fill-opacity="0.602"></path><path d="M254,207 C254,245 150,245 150,283" fill="none" stroke="#CC3311" stroke-width="1.46" stroke-opacity="0.42" stroke-linecap="round"></path><path d="M150,283 L147.99,278.73 L152.01,278.73 Z" fill="#CC3311" fill-opacity="0.568"></path><rect x="135" y="15" width="30" height="30" rx="6" fill="#7E74A8" fill-opacity="0.92" stroke="#fff" stroke-width="1.6"></rect><text x="150" y="33" text-anchor="middle" font-size="8" font-weight="700" fill="#fff">root</text><rect x="71" y="93" width="30" height="30" rx="6" fill="#7E74A8" fill-opacity="0.92" stroke="#fff" stroke-width="1.6"></rect><text x="86" y="112" text-anchor="middle" font-size="10.5" font-weight="700" fill="#fff">L</text><rect x="199" y="93" width="30" height="30" rx="6" fill="#7E74A8" fill-opacity="0.92" stroke="#fff" stroke-width="1.6"></rect><text x="214" y="112" text-anchor="middle" font-size="10.5" font-weight="700" fill="#fff">R</text><circle cx="46" cy="190" r="15.5" fill="#4477AA" fill-opacity="1" stroke="#fff" stroke-width="1.6"></circle><text x="46" y="194.5" text-anchor="middle" font-size="12.5" font-weight="700" fill="#fff">1</text><circle cx="120" cy="190" r="15.5" fill="#8E44AD" fill-opacity="0.55" stroke="#fff" stroke-width="1.6"></circle><text x="120" y="194.5" text-anchor="middle" font-size="12.5" font-weight="700" fill="#fff">3</text><circle cx="180" cy="190" r="15.5" fill="#228833" fill-opacity="1" stroke="#fff" stroke-width="1.6"></circle><text x="180" y="194.5" text-anchor="middle" font-size="12.5" font-weight="700" fill="#fff">2</text><circle cx="254" cy="190" r="15.5" fill="#CC3311" fill-opacity="0.55" stroke="#fff" stroke-width="1.6"></circle><text x="254" y="194.5" text-anchor="middle" font-size="12.5" font-weight="700" fill="#fff">4</text><circle cx="150" cy="300" r="17" fill="#fff" stroke="#1b1f24" stroke-width="1.5"></circle><text x="150" y="306" text-anchor="middle" font-size="18" font-weight="600" fill="#1b1f24">Σ</text><line x1="150" y1="317" x2="150" y2="332" stroke="#1b1f24" stroke-width="1.4"></line><path d="M150,334 L147.45,328.57 L152.55,328.57 Z" fill="#1b1f24" fill-opacity="1"></path><text x="159" y="342" font-size="12.5" font-style="italic" fill="#1b1f24">u(x, t)</text></g></g><text x="215.33333333333334" y="938" text-anchor="middle" font-size="29" fill="#1b1f24" font-family="Helvetica, Arial, sans-serif"><tspan font-style="italic">u</tspan><tspan font-style="italic">(x, t)</tspan><tspan dx="11.6">=</tspan><tspan dx="11.6" font-size="49.3">Σ</tspan><tspan dx="-11.6" dy="18.85" font-size="17.4" font-style="italic">i</tspan><tspan dy="-18.85" dx="7.25" font-size="29">Ψ̃</tspan><tspan dy="7.25" font-size="17.4" font-style="italic">i</tspan><tspan dy="-7.25" font-style="italic">(x, t)</tspan><tspan dx="7.25" font-style="italic">u</tspan><tspan dy="7.25" font-size="17.4" font-style="italic">i</tspan><tspan dy="-7.25" font-style="italic">(x, t)</tspan></text><line x1="402.6666666666667" y1="34" x2="402.6666666666667" y2="962" stroke="#e3e7eb" stroke-width="1"></line><text x="437" y="58" font-size="13" font-weight="600" fill="#1b1f24"><tspan fill="#6b747e">(B)</tspan><tspan dx="7">AToE</tspan></text><text x="437" y="78" font-size="9.5" font-weight="600" letter-spacing=".13em" fill="#6b747e">DECOMPOSED DOMAIN</text><g transform="translate(437,84)"><defs><clipPath id="dc1"><rect x="30" y="14" width="256" height="256" rx="3"></rect></clipPath><radialGradient id="g1_0" gradientUnits="userSpaceOnUse" cx="94" cy="78" r="128"><stop offset="0%" stop-color="#4477AA" stop-opacity="0.72"></stop><stop offset="52%" stop-color="#4477AA" stop-opacity="0.36"></stop><stop offset="100%" stop-color="#4477AA" stop-opacity="0"></stop></radialGradient><radialGradient id="g1_1" gradientUnits="userSpaceOnUse" cx="222" cy="78" r="128"><stop offset="0%" stop-color="#228833" stop-opacity="0.72"></stop><stop offset="52%" stop-color="#228833" stop-opacity="0.36"></stop><stop offset="100%" stop-color="#228833" stop-opacity="0"></stop></radialGradient><radialGradient id="g1_2" gradientUnits="userSpaceOnUse" cx="94" cy="206" r="128"><stop offset="0%" stop-color="#8E44AD" stop-opacity="0.72"></stop><stop offset="52%" stop-color="#8E44AD" stop-opacity="0.36"></stop><stop offset="100%" stop-color="#8E44AD" stop-opacity="0"></stop></radialGradient><radialGradient id="g1_3" gradientUnits="userSpaceOnUse" cx="222" cy="206" r="128"><stop offset="0%" stop-color="#CC3311" stop-opacity="0.72"></stop><stop offset="52%" stop-color="#CC3311" stop-opacity="0.36"></stop><stop offset="100%" stop-color="#CC3311" stop-opacity="0"></stop></radialGradient></defs><g clip-path="url(#dc1)"><rect x="30" y="14" width="256" height="256" fill="#fff"></rect><rect x="30" y="14" width="256" height="256" fill="url(#g1_0)"></rect><rect x="30" y="14" width="256" height="256" fill="url(#g1_1)"></rect><rect x="30" y="14" width="256" height="256" fill="url(#g1_2)"></rect><rect x="30" y="14" width="256" height="256" fill="url(#g1_3)"></rect><rect x="35" y="19" width="246" height="246" rx="3" fill="none" stroke="#1b1f24" stroke-width="1.1" stroke-opacity="0.7" stroke-dasharray="9 5"></rect><circle cx="94" cy="142" r="112" fill="none" stroke="#7E74A8" stroke-width="1.1" stroke-opacity="0.5" stroke-dasharray="9 5"></circle><circle cx="222" cy="142" r="112" fill="none" stroke="#7E74A8" stroke-width="1.1" stroke-opacity="0.5" stroke-dasharray="9 5"></circle><circle cx="94" cy="78" r="90" fill="none" stroke="#4477AA" stroke-width="1.1" stroke-opacity="0.6" stroke-dasharray="3.5 3.5"></circle><circle cx="222" cy="78" r="90" fill="none" stroke="#228833" stroke-width="1.1" stroke-opacity="0.6" stroke-dasharray="3.5 3.5"></circle><circle cx="94" cy="206" r="90" fill="none" stroke="#8E44AD" stroke-width="1.1" stroke-opacity="0.6" stroke-dasharray="3.5 3.5"></circle><circle cx="222" cy="206" r="90" fill="none" stroke="#CC3311" stroke-width="1.1" stroke-opacity="0.6" stroke-dasharray="3.5 3.5"></circle><line x1="158" y1="14" x2="158" y2="270" stroke="#6b747e" stroke-width="1" stroke-dasharray="4 4" opacity="0.55"></line><line x1="30" y1="142" x2="286" y2="142" stroke="#6b747e" stroke-width="1" stroke-dasharray="4 4" opacity="0.55"></line><text x="94" y="82" text-anchor="middle" font-size="13" font-weight="700" fill="#4477AA" opacity="0.95">1</text><text x="222" y="82" text-anchor="middle" font-size="13" font-weight="700" fill="#228833" opacity="0.95">2</text><text x="94" y="210" text-anchor="middle" font-size="13" font-weight="700" fill="#8E44AD" opacity="0.95">3</text><text x="222" y="210" text-anchor="middle" font-size="13" font-weight="700" fill="#CC3311" opacity="0.95">4</text><text x="44" y="146" text-anchor="middle" font-size="11" font-weight="700" fill="#1b1f24">L</text><text x="272" y="146" text-anchor="middle" font-size="11" font-weight="700" fill="#1b1f24">R</text><text x="43" y="29" font-size="9" font-weight="700" letter-spacing=".04em" fill="#1b1f24">root</text><line x1="133" y1="96" x2="147" y2="96" stroke="#1b1f24" stroke-width="1.5"></line><line x1="140" y1="89" x2="140" y2="103" stroke="#1b1f24" stroke-width="1.5"></line><circle cx="140" cy="96" r="3.1" fill="#1b1f24"></circle><text x="150" y="90" font-size="12" font-style="italic" fill="#1b1f24">(x, t)</text></g><rect x="30.5" y="14.5" width="255" height="255" rx="3" fill="none" stroke="#c9ced4" stroke-width="1"></rect><line x1="30" y1="271" x2="300" y2="271" stroke="#414a54" stroke-width="1.1"></line><path d="M300,271 L294.57,273.55 L294.57,268.45 Z" fill="#414a54" fill-opacity="1"></path><line x1="29" y1="270" x2="29" y2="1" stroke="#414a54" stroke-width="1.1"></line><path d="M29,1 L31.55,6.43 L26.45,6.43 Z" fill="#414a54" fill-opacity="1"></path><text x="295" y="286" font-size="12" font-style="italic" fill="#414a54">x</text><text x="21" y="9" font-size="12" font-style="italic" fill="#414a54">t</text><text x="21" y="285" font-size="9" fill="#6b747e">0</text></g><g transform="translate(464,398)"><text x="0" y="8" font-size="9" fill="#6b747e">soft indicators Ψ̃<tspan font-size="7" dy="2">i</tspan><tspan dy="-2">(x, t)</tspan></text><text x="252" y="8" text-anchor="end" font-size="9" fill="#6b747e">Σ = 1.00</text><text x="0" y="20" font-size="8.5" font-style="italic" fill="#6b747e">normalised over leaves ℒ</text><rect x="0" y="27" width="9" height="9" rx="2" fill="#4477AA"></rect><text x="20" y="37" text-anchor="middle" font-size="9.5" font-weight="600" fill="#414a54">1</text><rect x="34" y="31" width="184" height="6" rx="3" fill="#e3e7eb"></rect><rect x="34" y="31" width="84.64" height="6" rx="3" fill="#4477AA"></rect><text x="252" y="37" text-anchor="end" font-size="10" fill="#414a54">0.46</text><rect x="0" y="41" width="9" height="9" rx="2" fill="#228833"></rect><text x="20" y="51" text-anchor="middle" font-size="9.5" font-weight="600" fill="#414a54">2</text><rect x="34" y="45" width="184" height="6" rx="3" fill="#e3e7eb"></rect><rect x="34" y="45" width="71.76" height="6" rx="3" fill="#228833"></rect><text x="252" y="51" text-anchor="end" font-size="10" fill="#414a54">0.39</text><rect x="0" y="55" width="9" height="9" rx="2" fill="#8E44AD"></rect><text x="20" y="65" text-anchor="middle" font-size="9.5" font-weight="600" fill="#414a54">3</text><rect x="34" y="59" width="184" height="6" rx="3" fill="#e3e7eb"></rect><rect x="34" y="59" width="16.56" height="6" rx="3" fill="#8E44AD"></rect><text x="252" y="65" text-anchor="end" font-size="10" fill="#414a54">0.09</text><rect x="0" y="69" width="9" height="9" rx="2" fill="#CC3311"></rect><text x="20" y="79" text-anchor="middle" font-size="9.5" font-weight="600" fill="#414a54">4</text><rect x="34" y="73" width="184" height="6" rx="3" fill="#e3e7eb"></rect><rect x="34" y="73" width="11.04" height="6" rx="3" fill="#CC3311"></rect><text x="252" y="79" text-anchor="end" font-size="10" fill="#414a54">0.06</text></g><g transform="translate(440,524)"><text x="150" y="14" text-anchor="middle" font-size="12.5" font-style="italic" fill="#1b1f24">(x, t)</text><line x1="150" y1="19" x2="150" y2="38" stroke="#1b1f24" stroke-width="1.4"></line><path d="M150,40 L147.45,34.57 L152.55,34.57 Z" fill="#1b1f24" fill-opacity="1"></path><g transform="translate(0,28)"><line x1="150" y1="30" x2="86" y2="108" stroke="#aeb4ba" stroke-width="1.3"></line><line x1="150" y1="30" x2="214" y2="108" stroke="#aeb4ba" stroke-width="1.3"></line><line x1="86" y1="108" x2="46" y2="190" stroke="#aeb4ba" stroke-width="1.3"></line><line x1="86" y1="108" x2="120" y2="190" stroke="#aeb4ba" stroke-width="1.3"></line><line x1="214" y1="108" x2="180" y2="190" stroke="#aeb4ba" stroke-width="1.3"></line><line x1="214" y1="108" x2="254" y2="190" stroke="#aeb4ba" stroke-width="1.3"></line><path d="M46,207 C46,245 150,245 150,283" fill="none" stroke="#4477AA" stroke-width="5.24" stroke-opacity="0.95" stroke-linecap="round"></path><path d="M150,283 L147.45,277.59 L152.55,277.59 Z" fill="#4477AA" fill-opacity="1"></path><path d="M180,207 C180,245 150,245 150,283" fill="none" stroke="#228833" stroke-width="4.61" stroke-opacity="0.95" stroke-linecap="round"></path><path d="M150,283 L147.54,277.78 L152.46,277.78 Z" fill="#228833" fill-opacity="1"></path><path d="M120,207 C120,245 150,245 150,283" fill="none" stroke="#8E44AD" stroke-width="1.91" stroke-opacity="0.5" stroke-linecap="round"></path><path d="M150,283 L147.93,278.59 L152.07,278.59 Z" fill="#8E44AD" fill-opacity="0.653"></path><path d="M254,207 C254,245 150,245 150,283" fill="none" stroke="#CC3311" stroke-width="1.64" stroke-opacity="0.45" stroke-linecap="round"></path><path d="M150,283 L147.96,278.67 L152.04,278.67 Z" fill="#CC3311" fill-opacity="0.602"></path><rect x="135" y="15" width="30" height="30" rx="6" fill="#C2C8CE" fill-opacity="0.85" stroke="#fff" stroke-width="1.6"></rect><text x="150" y="33" text-anchor="middle" font-size="8" font-weight="700" fill="#7c848c">root</text><rect x="71" y="93" width="30" height="30" rx="6" fill="#C2C8CE" fill-opacity="0.85" stroke="#fff" stroke-width="1.6"></rect><text x="86" y="112" text-anchor="middle" font-size="10.5" font-weight="700" fill="#7c848c">L</text><rect x="199" y="93" width="30" height="30" rx="6" fill="#C2C8CE" fill-opacity="0.85" stroke="#fff" stroke-width="1.6"></rect><text x="214" y="112" text-anchor="middle" font-size="10.5" font-weight="700" fill="#7c848c">R</text><circle cx="46" cy="190" r="15.5" fill="#4477AA" fill-opacity="1" stroke="#fff" stroke-width="1.6"></circle><text x="46" y="194.5" text-anchor="middle" font-size="12.5" font-weight="700" fill="#fff">1</text><circle cx="120" cy="190" r="15.5" fill="#8E44AD" fill-opacity="0.55" stroke="#fff" stroke-width="1.6"></circle><text x="120" y="194.5" text-anchor="middle" font-size="12.5" font-weight="700" fill="#fff">3</text><circle cx="180" cy="190" r="15.5" fill="#228833" fill-opacity="1" stroke="#fff" stroke-width="1.6"></circle><text x="180" y="194.5" text-anchor="middle" font-size="12.5" font-weight="700" fill="#fff">2</text><circle cx="254" cy="190" r="15.5" fill="#CC3311" fill-opacity="0.55" stroke="#fff" stroke-width="1.6"></circle><text x="254" y="194.5" text-anchor="middle" font-size="12.5" font-weight="700" fill="#fff">4</text><circle cx="150" cy="300" r="17" fill="#fff" stroke="#1b1f24" stroke-width="1.5"></circle><text x="150" y="306" text-anchor="middle" font-size="18" font-weight="600" fill="#1b1f24">Σ</text><line x1="150" y1="317" x2="150" y2="332" stroke="#1b1f24" stroke-width="1.4"></line><path d="M150,334 L147.45,328.57 L152.55,328.57 Z" fill="#1b1f24" fill-opacity="1"></path><text x="159" y="342" font-size="12.5" font-style="italic" fill="#1b1f24">u(x, t)</text></g></g><text x="590" y="938" text-anchor="middle" font-size="29" fill="#1b1f24" font-family="Helvetica, Arial, sans-serif"><tspan font-style="italic">u</tspan><tspan font-style="italic">(x, t)</tspan><tspan dx="11.6">=</tspan><tspan dx="11.6" font-size="49.3">Σ</tspan><tspan dx="-18.85" dy="18.85" font-size="17.4" font-style="italic">i∈ℒ</tspan><tspan dy="-18.85" dx="7.25" font-size="29">Ψ̃</tspan><tspan dy="7.25" font-size="17.4" font-style="italic">i</tspan><tspan dy="-7.25" font-style="italic">(x, t)</tspan><tspan dx="7.25" font-style="italic">u</tspan><tspan dy="7.25" font-size="17.4" font-style="italic">i</tspan><tspan dy="-7.25" font-style="italic">(x, t)</tspan></text><line x1="777.3333333333334" y1="34" x2="777.3333333333334" y2="962" stroke="#e3e7eb" stroke-width="1"></line><text x="811.6666666666667" y="58" font-size="13" font-weight="600" fill="#1b1f24"><tspan fill="#6b747e">(C)</tspan><tspan dx="7">ANT</tspan></text><text x="811.6666666666667" y="78" font-size="9.5" font-weight="600" letter-spacing=".13em" fill="#6b747e">DECOMPOSED DOMAIN</text><g transform="translate(811.67,84)"><defs><clipPath id="dc2"><rect x="30" y="14" width="256" height="256" rx="3"></rect></clipPath><radialGradient id="g2_0" gradientUnits="userSpaceOnUse" cx="94" cy="78" r="128"><stop offset="0%" stop-color="#4477AA" stop-opacity="0.72"></stop><stop offset="52%" stop-color="#4477AA" stop-opacity="0.36"></stop><stop offset="100%" stop-color="#4477AA" stop-opacity="0"></stop></radialGradient><radialGradient id="g2_1" gradientUnits="userSpaceOnUse" cx="222" cy="78" r="128"><stop offset="0%" stop-color="#228833" stop-opacity="0.72"></stop><stop offset="52%" stop-color="#228833" stop-opacity="0.36"></stop><stop offset="100%" stop-color="#228833" stop-opacity="0"></stop></radialGradient><radialGradient id="g2_2" gradientUnits="userSpaceOnUse" cx="94" cy="206" r="128"><stop offset="0%" stop-color="#8E44AD" stop-opacity="0.72"></stop><stop offset="52%" stop-color="#8E44AD" stop-opacity="0.36"></stop><stop offset="100%" stop-color="#8E44AD" stop-opacity="0"></stop></radialGradient><radialGradient id="g2_3" gradientUnits="userSpaceOnUse" cx="222" cy="206" r="128"><stop offset="0%" stop-color="#CC3311" stop-opacity="0.72"></stop><stop offset="52%" stop-color="#CC3311" stop-opacity="0.36"></stop><stop offset="100%" stop-color="#CC3311" stop-opacity="0"></stop></radialGradient></defs><g clip-path="url(#dc2)"><rect x="30" y="14" width="256" height="256" fill="#fff"></rect><rect x="30" y="14" width="256" height="256" fill="url(#g2_0)"></rect><rect x="30" y="14" width="256" height="256" fill="url(#g2_1)"></rect><rect x="30" y="14" width="256" height="256" fill="url(#g2_2)"></rect><rect x="30" y="14" width="256" height="256" fill="url(#g2_3)"></rect><rect x="35" y="19" width="246" height="246" rx="3" fill="none" stroke="#1b1f24" stroke-width="1.1" stroke-opacity="0.7" stroke-dasharray="9 5"></rect><circle cx="94" cy="142" r="112" fill="none" stroke="#7E74A8" stroke-width="1.1" stroke-opacity="0.5" stroke-dasharray="9 5"></circle><circle cx="222" cy="142" r="112" fill="none" stroke="#7E74A8" stroke-width="1.1" stroke-opacity="0.5" stroke-dasharray="9 5"></circle><circle cx="94" cy="78" r="90" fill="none" stroke="#4477AA" stroke-width="1.1" stroke-opacity="0.6" stroke-dasharray="3.5 3.5"></circle><circle cx="222" cy="78" r="90" fill="none" stroke="#228833" stroke-width="1.1" stroke-opacity="0.6" stroke-dasharray="3.5 3.5"></circle><circle cx="94" cy="206" r="90" fill="none" stroke="#8E44AD" stroke-width="1.1" stroke-opacity="0.6" stroke-dasharray="3.5 3.5"></circle><circle cx="222" cy="206" r="90" fill="none" stroke="#CC3311" stroke-width="1.1" stroke-opacity="0.6" stroke-dasharray="3.5 3.5"></circle><line x1="158" y1="14" x2="158" y2="270" stroke="#6b747e" stroke-width="1" stroke-dasharray="4 4" opacity="0.55"></line><line x1="30" y1="142" x2="286" y2="142" stroke="#6b747e" stroke-width="1" stroke-dasharray="4 4" opacity="0.55"></line><text x="94" y="82" text-anchor="middle" font-size="13" font-weight="700" fill="#4477AA" opacity="0.95">1</text><text x="222" y="82" text-anchor="middle" font-size="13" font-weight="700" fill="#228833" opacity="0.95">2</text><text x="94" y="210" text-anchor="middle" font-size="13" font-weight="700" fill="#8E44AD" opacity="0.95">3</text><text x="222" y="210" text-anchor="middle" font-size="13" font-weight="700" fill="#CC3311" opacity="0.95">4</text><text x="44" y="146" text-anchor="middle" font-size="11" font-weight="700" fill="#1b1f24">L</text><text x="272" y="146" text-anchor="middle" font-size="11" font-weight="700" fill="#1b1f24">R</text><text x="43" y="29" font-size="9" font-weight="700" letter-spacing=".04em" fill="#1b1f24">root</text><line x1="133" y1="96" x2="147" y2="96" stroke="#1b1f24" stroke-width="1.5"></line><line x1="140" y1="89" x2="140" y2="103" stroke="#1b1f24" stroke-width="1.5"></line><circle cx="140" cy="96" r="3.1" fill="#1b1f24"></circle><text x="150" y="90" font-size="12" font-style="italic" fill="#1b1f24">(x, t)</text></g><rect x="30.5" y="14.5" width="255" height="255" rx="3" fill="none" stroke="#c9ced4" stroke-width="1"></rect><line x1="30" y1="271" x2="300" y2="271" stroke="#414a54" stroke-width="1.1"></line><path d="M300,271 L294.57,273.55 L294.57,268.45 Z" fill="#414a54" fill-opacity="1"></path><line x1="29" y1="270" x2="29" y2="1" stroke="#414a54" stroke-width="1.1"></line><path d="M29,1 L31.55,6.43 L26.45,6.43 Z" fill="#414a54" fill-opacity="1"></path><text x="295" y="286" font-size="12" font-style="italic" fill="#414a54">x</text><text x="21" y="9" font-size="12" font-style="italic" fill="#414a54">t</text><text x="21" y="285" font-size="9" fill="#6b747e">0</text></g><g transform="translate(838.67,398)"><text x="0" y="8" font-size="9" fill="#6b747e">soft indicators Ψ̃<tspan font-size="7" dy="2">i</tspan><tspan dy="-2">(x, t)</tspan></text><text x="252" y="8" text-anchor="end" font-size="9" fill="#6b747e">Σ = 1.00</text><text x="0" y="20" font-size="8.5" font-style="italic" fill="#6b747e">normalised over leaves ℒ</text><rect x="0" y="27" width="9" height="9" rx="2" fill="#4477AA"></rect><text x="20" y="37" text-anchor="middle" font-size="9.5" font-weight="600" fill="#414a54">1</text><rect x="34" y="31" width="184" height="6" rx="3" fill="#e3e7eb"></rect><rect x="34" y="31" width="84.64" height="6" rx="3" fill="#4477AA"></rect><text x="252" y="37" text-anchor="end" font-size="10" fill="#414a54">0.46</text><rect x="0" y="41" width="9" height="9" rx="2" fill="#228833"></rect><text x="20" y="51" text-anchor="middle" font-size="9.5" font-weight="600" fill="#414a54">2</text><rect x="34" y="45" width="184" height="6" rx="3" fill="#e3e7eb"></rect><rect x="34" y="45" width="71.76" height="6" rx="3" fill="#228833"></rect><text x="252" y="51" text-anchor="end" font-size="10" fill="#414a54">0.39</text><rect x="0" y="55" width="9" height="9" rx="2" fill="#8E44AD"></rect><text x="20" y="65" text-anchor="middle" font-size="9.5" font-weight="600" fill="#414a54">3</text><rect x="34" y="59" width="184" height="6" rx="3" fill="#e3e7eb"></rect><rect x="34" y="59" width="16.56" height="6" rx="3" fill="#8E44AD"></rect><text x="252" y="65" text-anchor="end" font-size="10" fill="#414a54">0.09</text><rect x="0" y="69" width="9" height="9" rx="2" fill="#CC3311"></rect><text x="20" y="79" text-anchor="middle" font-size="9.5" font-weight="600" fill="#414a54">4</text><rect x="34" y="73" width="184" height="6" rx="3" fill="#e3e7eb"></rect><rect x="34" y="73" width="11.04" height="6" rx="3" fill="#CC3311"></rect><text x="252" y="79" text-anchor="end" font-size="10" fill="#414a54">0.06</text></g><g transform="translate(814.67,524)"><text x="150" y="14" text-anchor="middle" font-size="12.5" font-style="italic" fill="#1b1f24">(x, t)</text><line x1="150" y1="19" x2="150" y2="38" stroke="#1b1f24" stroke-width="1.4"></line><path d="M150,40 L147.45,34.57 L152.55,34.57 Z" fill="#1b1f24" fill-opacity="1"></path><g transform="translate(0,28)"><line x1="150" y1="30" x2="86" y2="108" stroke="#aeb4ba" stroke-width="1.3"></line><line x1="150" y1="30" x2="214" y2="108" stroke="#aeb4ba" stroke-width="1.3"></line><line x1="86" y1="108" x2="46" y2="190" stroke="#aeb4ba" stroke-width="1.3"></line><line x1="86" y1="108" x2="120" y2="190" stroke="#aeb4ba" stroke-width="1.3"></line><line x1="214" y1="108" x2="180" y2="190" stroke="#aeb4ba" stroke-width="1.3"></line><line x1="214" y1="108" x2="254" y2="190" stroke="#aeb4ba" stroke-width="1.3"></line><path d="M46,207 C46,245 150,245 150,283" fill="none" stroke="#4477AA" stroke-width="5.24" stroke-opacity="0.95" stroke-linecap="round"></path><path d="M150,283 L147.45,277.59 L152.55,277.59 Z" fill="#4477AA" fill-opacity="1"></path><path d="M180,207 C180,245 150,245 150,283" fill="none" stroke="#228833" stroke-width="4.61" stroke-opacity="0.95" stroke-linecap="round"></path><path d="M150,283 L147.54,277.78 L152.46,277.78 Z" fill="#228833" fill-opacity="1"></path><path d="M120,207 C120,245 150,245 150,283" fill="none" stroke="#8E44AD" stroke-width="1.91" stroke-opacity="0.5" stroke-linecap="round"></path><path d="M150,283 L147.93,278.59 L152.07,278.59 Z" fill="#8E44AD" fill-opacity="0.653"></path><path d="M254,207 C254,245 150,245 150,283" fill="none" stroke="#CC3311" stroke-width="1.64" stroke-opacity="0.45" stroke-linecap="round"></path><path d="M150,283 L147.96,278.67 L152.04,278.67 Z" fill="#CC3311" fill-opacity="0.602"></path><line x1="137.31" y1="45.46" x2="98.69" y2="92.54" stroke="#5a63b0" stroke-width="1.7" stroke-dasharray="4 3"></line><path d="M98.69,92.54 L100.03,87.21 L103.65,90.18 Z" fill="#5a63b0" fill-opacity="1"></path><line x1="162.69" y1="45.46" x2="201.31" y2="92.54" stroke="#5a63b0" stroke-width="1.7" stroke-dasharray="4 3"></line><path d="M201.31,92.54 L196.35,90.18 L199.97,87.21 Z" fill="#5a63b0" fill-opacity="1"></path><line x1="77.23" y1="125.98" x2="54.77" y2="172.02" stroke="#5a63b0" stroke-width="1.7" stroke-dasharray="4 3"></line><path d="M54.77,172.02 L54.85,166.53 L59.06,168.58 Z" fill="#5a63b0" fill-opacity="1"></path><line x1="93.66" y1="126.47" x2="112.34" y2="171.53" stroke="#5a63b0" stroke-width="1.7" stroke-dasharray="4 3"></line><path d="M112.34,171.53 L108.27,167.83 L112.6,166.03 Z" fill="#5a63b0" fill-opacity="1"></path><line x1="206.34" y1="126.47" x2="187.66" y2="171.53" stroke="#5a63b0" stroke-width="1.7" stroke-dasharray="4 3"></line><path d="M187.66,171.53 L187.4,166.03 L191.73,167.83 Z" fill="#5a63b0" fill-opacity="1"></path><line x1="222.77" y1="125.98" x2="245.23" y2="172.02" stroke="#5a63b0" stroke-width="1.7" stroke-dasharray="4 3"></line><path d="M245.23,172.02 L240.94,168.58 L245.15,166.53 Z" fill="#5a63b0" fill-opacity="1"></path><rect x="135" y="15" width="30" height="30" rx="6" fill="#C2C8CE" fill-opacity="0.85" stroke="#fff" stroke-width="1.6"></rect><text x="150" y="33" text-anchor="middle" font-size="8" font-weight="700" fill="#7c848c">root</text><rect x="71" y="93" width="30" height="30" rx="6" fill="#C2C8CE" fill-opacity="0.85" stroke="#fff" stroke-width="1.6"></rect><text x="86" y="112" text-anchor="middle" font-size="10.5" font-weight="700" fill="#7c848c">L</text><rect x="199" y="93" width="30" height="30" rx="6" fill="#C2C8CE" fill-opacity="0.85" stroke="#fff" stroke-width="1.6"></rect><text x="214" y="112" text-anchor="middle" font-size="10.5" font-weight="700" fill="#7c848c">R</text><circle cx="46" cy="190" r="15.5" fill="#4477AA" fill-opacity="1" stroke="#fff" stroke-width="1.6"></circle><text x="46" y="194.5" text-anchor="middle" font-size="12.5" font-weight="700" fill="#fff">1</text><circle cx="120" cy="190" r="15.5" fill="#8E44AD" fill-opacity="0.55" stroke="#fff" stroke-width="1.6"></circle><text x="120" y="194.5" text-anchor="middle" font-size="12.5" font-weight="700" fill="#fff">3</text><circle cx="180" cy="190" r="15.5" fill="#228833" fill-opacity="1" stroke="#fff" stroke-width="1.6"></circle><text x="180" y="194.5" text-anchor="middle" font-size="12.5" font-weight="700" fill="#fff">2</text><circle cx="254" cy="190" r="15.5" fill="#CC3311" fill-opacity="0.55" stroke="#fff" stroke-width="1.6"></circle><text x="254" y="194.5" text-anchor="middle" font-size="12.5" font-weight="700" fill="#fff">4</text><circle cx="150" cy="300" r="17" fill="#fff" stroke="#1b1f24" stroke-width="1.5"></circle><text x="150" y="306" text-anchor="middle" font-size="18" font-weight="600" fill="#1b1f24">Σ</text><line x1="150" y1="317" x2="150" y2="332" stroke="#1b1f24" stroke-width="1.4"></line><path d="M150,334 L147.45,328.57 L152.55,328.57 Z" fill="#1b1f24" fill-opacity="1"></path><text x="159" y="342" font-size="12.5" font-style="italic" fill="#1b1f24">u(x, t)</text></g></g><text x="964.6666666666667" y="938" text-anchor="middle" font-size="29" fill="#1b1f24" font-family="Helvetica, Arial, sans-serif"><tspan font-style="italic">u</tspan><tspan font-style="italic">(x, t)</tspan><tspan dx="11.6">=</tspan><tspan dx="11.6" font-size="49.3">Σ</tspan><tspan dx="-18.85" dy="18.85" font-size="17.4" font-style="italic">i∈ℒ</tspan><tspan dy="-18.85" dx="7.25" font-size="29">Ψ̃</tspan><tspan dy="7.25" font-size="17.4" font-style="italic">i</tspan><tspan dy="-7.25" font-style="italic">(x, t)</tspan><tspan dx="7.25" font-style="italic">u</tspan><tspan dy="7.25" font-size="17.4" font-style="italic">i</tspan><tspan dy="-7.25" font-style="italic">(x, t)</tspan></text><line x1="28" y1="964" x2="1152" y2="964" stroke="#e3e7eb" stroke-width="1"></line><text x="42" y="992" font-size="9" font-weight="700" letter-spacing=".06em" fill="#1b1f24">REGION ↔ NODE</text><g transform="translate(42,1004)"><rect x="0" y="-1" width="11" height="11" rx="2" fill="#4477AA"></rect><rect x="78" y="-1" width="11" height="11" rx="2" fill="#228833"></rect><text x="16" y="8" font-size="9.5" fill="#414a54">1 = expert 1</text><text x="94" y="8" font-size="9.5" fill="#414a54">2 = expert 2</text><rect x="0" y="17" width="11" height="11" rx="2" fill="#8E44AD"></rect><rect x="78" y="17" width="11" height="11" rx="2" fill="#CC3311"></rect><text x="16" y="26" font-size="9.5" fill="#414a54">region 3</text><text x="94" y="26" font-size="9.5" fill="#414a54">region 4</text></g><line x1="215.33333333333334" y1="980" x2="215.33333333333334" y2="1060" stroke="#e3e7eb" stroke-width="1"></line><text x="229.33333333333334" y="992" font-size="9" font-weight="700" letter-spacing=".06em" fill="#1b1f24">SOFT INDICATOR</text><g transform="translate(229.33333333333334,1004)"><defs><radialGradient id="lg" cx="50%" cy="50%" r="60%"><stop offset="0%" stop-color="#4477AA" stop-opacity="0.75"></stop><stop offset="100%" stop-color="#4477AA" stop-opacity="0"></stop></radialGradient></defs><rect x="0" y="-2" width="34" height="20" fill="url(#lg)"></rect><text x="42" y="7" font-size="9.5" fill="#414a54">Ψ̃i peaks at the</text><text x="42" y="19" font-size="9.5" fill="#414a54">centre, fades out</text></g><line x1="402.6666666666667" y1="980" x2="402.6666666666667" y2="1060" stroke="#e3e7eb" stroke-width="1"></line><text x="416.6666666666667" y="992" font-size="9" font-weight="700" letter-spacing=".06em" fill="#1b1f24">SUPPORT BOUNDARY</text><g transform="translate(416.6666666666667,1004)"><circle cx="9" cy="8" r="9" fill="none" stroke="#4477AA" stroke-width="1.2" stroke-dasharray="3 3"></circle><text x="26" y="6" font-size="9.5" fill="#414a54">edge of an expert’s</text><text x="26" y="18" font-size="9.5" fill="#414a54">support, where Ψ̃i→0</text></g><line x1="590" y1="980" x2="590" y2="1060" stroke="#e3e7eb" stroke-width="1"></line><text x="604" y="992" font-size="9" font-weight="700" letter-spacing=".06em" fill="#1b1f24">PARTITION OF UNITY</text><g transform="translate(604,1004)"><circle cx="9" cy="8" r="8" fill="#4477AA" fill-opacity="0.35"></circle><circle cx="17" cy="8" r="8" fill="#228833" fill-opacity="0.35"></circle><text x="34" y="7" font-size="9.5" fill="#414a54">overlapping supports</text><text x="34" y="19" font-size="9.5" fill="#414a54">sum to 1 everywhere</text></g><line x1="777.3333333333334" y1="980" x2="777.3333333333334" y2="1060" stroke="#e3e7eb" stroke-width="1"></line><text x="791.3333333333334" y="992" font-size="9" font-weight="700" letter-spacing=".06em" fill="#1b1f24">ACTIVE / INACTIVE</text><g transform="translate(791.3333333333334,1004)"><circle cx="9" cy="8" r="9" fill="#4477AA"></circle><rect x="22" y="0" width="15" height="15" rx="3.5" fill="#C2C8CE"></rect><text x="44" y="7" font-size="9.5" fill="#414a54">coloured = active;</text><text x="44" y="19" font-size="9.5" fill="#414a54">grey □ = inactive</text></g><line x1="964.6666666666667" y1="980" x2="964.6666666666667" y2="1060" stroke="#e3e7eb" stroke-width="1"></line><text x="978.6666666666667" y="992" font-size="9" font-weight="700" letter-spacing=".06em" fill="#1b1f24">CONTRIBUTION &amp; FLOW</text><g transform="translate(978.6666666666667,1004)"><line x1="0" y1="3" x2="30" y2="3" stroke="#414a54" stroke-width="4.5"></line><path d="M34,3 L29.48,5.13 L29.48,0.87 Z" fill="#414a54" fill-opacity="1"></path><line x1="0" y1="20" x2="28" y2="20" stroke="#5a63b0" stroke-width="1.7" stroke-dasharray="4 3"></line><path d="M33,20 L28.48,22.13 L28.48,17.87 Z" fill="#5a63b0" fill-opacity="1"></path><text x="42" y="6" font-size="9.5" fill="#414a54">weight = influence</text><text x="42" y="23" font-size="9.5" fill="#414a54">dashed = ANT flow</text></g></svg>